<svg id="Layer_1" data-name="Layer 1" xmlns="http://www.w3.org/2000/svg" viewBox="0 0 600 266.62"><defs><style>.cls-1{fill:#726570;}.cls-2{fill:#140c0f;}</style></defs><rect class="cls-1" x="107.12" y="48.19" width="147.26" height="38.66"/><path class="cls-2" d="M253.39,49.19V85.85H108.12V49.19H253.39m2-2H106.12V87.85H255.39V47.19Z"/><polygon class="cls-1" points="144.77 220.78 87.27 200.24 107.43 79.59 144.96 48.19 216.55 48.19 254.08 79.59 274.24 200.24 216.74 220.78 144.77 220.78"/><path class="cls-2" d="M216.19,49.19l37,30.93,20,119.46-56.54,20.21H144.94L88.4,199.58l20-119.46,37-30.93h70.87m.72-2H144.59L106.51,79.06,86.15,200.9l58.44,20.89h72.32l58.45-20.89L255,79.06,216.91,47.19Z"/><polygon class="cls-2" points="180.75 220.07 140.9 191.97 220.61 191.97 180.75 220.07"/><polygon class="cls-2" points="246.24 123.39 213.02 126.4 214.76 145.59 246.24 123.39"/><polygon class="cls-2" points="115.27 123.39 148.49 126.4 146.75 145.59 115.27 123.39"/><path class="cls-2" d="M317.8,145.32h-8.54l3.68-29.52,2-7.57h-.9l-11.39,27.58H298l-3.4-20v-7.57h-.9l-4.59,37.09h-6.46L287,110l2.15-6.26h-5.69l.9-7h14.45l3.75,22.57v5.84h.76L315,96.77h8.68Z"/><path class="cls-2" d="M358.23,113.72c0,10.7-3.82,22.71-9.1,31.6H332.26c-3.34-4.51-4.73-10.49-4.73-16.94,0-10.7,3.82-22.72,9.1-31.61h16.88C356.85,101.28,358.23,107.26,358.23,113.72Zm-8.4-1.6a39.15,39.15,0,0,0-.76-8.34h-7.85A72.81,72.81,0,0,0,335.87,130a39.09,39.09,0,0,0,.76,8.34h7.85A73,73,0,0,0,349.83,112.12Z"/><path class="cls-2" d="M385.12,125.87l6.05,19.45h-8.69L377.41,128H373l-2.16,17.36h-8.4L366.85,110l2.09-6.19h-5.63l.9-7h28.55a17.92,17.92,0,0,1,2.5,9.58C395.26,112.61,392.62,120,385.12,125.87Zm-11.39-3.47h8.41a33.33,33.33,0,0,0,4.72-16.25c0-.84-.07-1.6-.14-2.37H376Z"/><path class="cls-2" d="M424.3,103.78h-8.68l-5.28,41.54h-8.4l4.3-35.21,2.16-6.33H397.63l.83-7h26.68Z"/><path class="cls-2" d="M451.33,145.32h-8.41v-14.1H432l-3.61,14.1h-6.6l9.1-35.28,2.71-6.32h-6.81l.83-7h23.76Zm-8.41-19.65v-22H439l-5.62,22Z"/><path class="cls-2" d="M480.65,138.31l-.84,7H458.63L463.07,110l2.16-6.26h-5.7l.9-7h12.71l-5.2,41.54Z"/><path class="cls-2" d="M308.16,193h-8.9V171.57l.33-4H299L292.24,193H283.9l.33-23.82,2.7-7.74-6.52-.05,1-7h11.33V158L291,163.34l-.33,20.11-.5,3.93h.72L297.6,162h6.8v21.44l-.33,3.93h.66l6.63-27.47h-4.58l.71-5.58h9.95Z"/><path class="cls-2" d="M342.43,167.81c0,8.51-3,18.08-7.24,25.15H321.76c-2.65-3.59-3.76-8.35-3.76-13.49,0-8.51,3-18.07,7.24-25.14h13.43C341.32,157.92,342.43,162.67,342.43,167.81Zm-6.69-1.27a30.28,30.28,0,0,0-.61-6.63h-6.24a58,58,0,0,0-4.26,20.84,30.91,30.91,0,0,0,.61,6.63h6.25A58.06,58.06,0,0,0,335.74,166.54Z"/><path class="cls-2" d="M373.83,193H367L370,169.47l1.6-6h-.72l-9.06,21.94h-3.71l-2.7-15.92v-6h-.72L351,193h-5.14l3.43-28.08,1.71-5h-4.53l.72-5.58h11.49l3,18v4.64h.61l9.34-22.6h6.9Z"/><path class="cls-2" d="M400.64,173.89l5.58,5.2A19.13,19.13,0,0,1,399.09,193H382.18l3.48-28.08,1.71-5h-4.53l.72-5.58h21.61a13,13,0,0,1,2,7.07C407.21,165.49,405.39,170.08,400.64,173.89Zm-3,13.49a32.45,32.45,0,0,0,1.66-7.52l-2.66-3.48h-5.69l-1.33,11ZM393,159.91,391.46,172h5.42a19,19,0,0,0,3.76-10.83,8.31,8.31,0,0,0-.06-1.22Z"/><path class="cls-2" d="M431.76,193h-6.69V181.74h-8.73L413.46,193h-5.25l7.24-28.08,2.16-5h-5.42l.66-5.52h18.91Zm-6.69-15.64V159.85H422l-4.47,17.47Z"/><path class="cls-2" d="M457.29,159.91h-6.91L446.18,193H439.5l3.42-28,1.72-5h-8.57l.66-5.58H458Z"/><path class="cls-2" d="M473.71,167.59l.94-7.68h-8.07a18.8,18.8,0,0,0-.33,3.54c0,.66.05,1.38.11,2l10.5,13.65h.06c.33,6-2.1,11-7.52,13.82H456v-.06l1.55-13h4.92l-.88,7.52h7.79a25.49,25.49,0,0,0,.5-5,11.81,11.81,0,0,0-.06-1.43l-10.66-14.15c-.23-5.47,1.87-10,6.41-12.49h14.59l-1.61,13.26Z"/><path class="cls-2" d="M260.21,60.39H500.85a13,13,0,0,1,13,13v143a13,13,0,0,1-13,13H260.21a13,13,0,0,1-13-13h2a11,11,0,0,0,11,11H500.85a11,11,0,0,0,11-11V73.39a11,11,0,0,0-11-11"/></svg>